Coordinates
version=1
nRows=45
nColumns=13
inDegrees=yes

Units are S.I. units (second, meters, Newtons, ...)
If the header above contains a line with 'inDegrees', this indicates whether rotational values are in degrees (yes) or radians (no).

endheader
time	pelvis_tilt	pelvis_tx	pelvis_ty	hip_flexion_l	hip_flexion_r	knee_angle_l	knee_angle_r	ankle_angle_l	ankle_angle_r	lumbar	Treadmill_tx	Compensate_tx
      0.00000000	    -10.46802649	      1.33489679	      0.98025514	     -2.40264393	     33.76311006	    -10.53743900	    -34.54540213	     -4.13689322	     -4.24858838	      4.40635824	      0.00000000	      0.00000000
      0.01000000	    -11.22698702	      1.33636044	      0.98424623	     -3.51260288	     33.75834125	     -9.43857110	    -28.76992116	     -8.02246924	     -3.76326118	      5.52853740	     -0.02670000	      0.02670000
      0.02000000	    -11.83295564	      1.33809822	      0.98770119	     -4.77597525	     33.45358820	     -8.35721020	    -22.93600552	    -11.81285976	     -3.86076773	      6.51051385	     -0.05340000	      0.05340000
      0.03000000	    -12.29938008	      1.33988288	      0.99045028	     -5.94883389	     32.96255394	     -7.73115101	    -17.40034202	    -15.20341979	     -4.28844301	      7.31805196	     -0.08010000	      0.08010000
      0.04000000	    -12.62841895	      1.34174655	      0.99243977	     -7.00601903	     32.36121636	     -7.55760148	    -12.46656023	    -18.14746259	     -4.80564391	      7.97514794	     -0.10680000	      0.10680000
      0.05000000	    -12.88421451	      1.34349992	      0.99364587	     -7.76687272	     31.79648117	     -8.01442699	     -8.37404002	    -20.56333995	     -5.21301180	      8.52255623	     -0.13350000	      0.13350000
      0.06000000	    -12.98791167	      1.34503415	      0.99427322	     -8.26865886	     31.19138844	     -9.14170464	     -5.19269314	    -22.44793994	     -5.43899849	      8.85088569	     -0.16020000	      0.16020000
      0.07000000	    -13.07938219	      1.34611023	      0.99410720	     -8.25780725	     30.74850967	    -11.14977202	     -3.05428523	    -23.02266779	     -5.20583879	      9.08813326	     -0.18690000	      0.18690000
      0.08000000	    -12.94973793	      1.34705350	      0.99367735	     -8.13921638	     30.08757339	    -13.48145357	     -1.64243792	    -24.57018313	     -5.42576374	      9.06590864	     -0.21360000	      0.21360000
      0.09000000	    -12.73662269	      1.34748016	      0.99256395	     -7.60747465	     29.47123105	    -16.56902687	     -1.16576047	    -24.93384760	     -5.31270870	      8.86134799	     -0.24030000	      0.24030000
      0.10000000	    -12.39550115	      1.34753462	      0.99088285	     -6.82586466	     28.80341010	    -20.07951790	     -1.48984883	    -25.08828413	     -5.29012360	      8.45108058	     -0.26700000	      0.26700000
      0.11000000	    -12.12679448	      1.34705442	      0.98823200	     -5.53657463	     28.37013777	    -24.19076958	     -2.64491467	    -23.77807765	     -5.22215874	      8.06838970	     -0.29370000	      0.29370000
      0.12000000	    -11.66761174	      1.34622299	      0.98513741	     -4.17540753	     27.81217955	    -28.44143129	     -4.40149023	    -22.67315438	     -5.19042795	      7.40673796	     -0.32040000	      0.32040000
      0.13000000	    -11.19362562	      1.34499882	      0.98139288	     -2.55747739	     27.35074469	    -32.85463495	     -6.71151432	    -21.30502669	     -5.02005433	      6.68870399	     -0.34710000	      0.34710000
      0.14000000	    -10.65471308	      1.34329560	      0.97717083	     -0.77252748	     26.96507320	    -37.31923160	     -9.54085344	    -19.75273978	     -4.54970216	      5.83375655	     -0.37380000	      0.37380000
      0.15000000	    -10.07873491	      1.34112992	      0.97259360	      1.17510960	     26.67937985	    -41.73684422	    -12.81118942	    -18.08134536	     -3.60578883	      4.87027062	     -0.40050000	      0.40050000
      0.16000000	     -9.45280992	      1.33853811	      0.96784508	      3.23757054	     26.44263732	    -46.02286802	    -16.41862124	    -16.31540479	     -2.09063923	      3.79666541	     -0.42720000	      0.42720000
      0.17000000	     -8.83528621	      1.33558812	      0.96305036	      5.44980741	     26.22536237	    -50.09464786	    -20.16201597	    -14.52582593	     -0.11097707	      2.69204236	     -0.45390000	      0.45390000
      0.18000000	     -8.21665800	      1.33243771	      0.95845075	      7.75016787	     25.87472904	    -53.84547432	    -23.76477059	    -12.71016353	      2.18195757	      1.56563211	     -0.48060000	      0.48060000
      0.19000000	     -7.63221438	      1.32922725	      0.95431840	     10.12712925	     25.26131442	    -57.17365354	    -26.88892760	    -10.91870109	      4.58046339	      0.46001233	     -0.50730000	      0.50730000
      0.20000000	     -7.12796219	      1.32617696	      0.95081459	     12.57194146	     24.32744261	    -59.98200082	    -29.36386529	     -9.17092471	      6.93599866	     -0.47549505	     -0.53400000	      0.53400000
      0.21000000	     -6.75412251	      1.32344449	      0.94816825	     15.06928850	     23.03674153	    -62.17054648	    -30.98827124	     -7.53371453	      9.09208449	     -1.20212013	     -0.56070000	      0.56070000
      0.22000000	     -6.51360259	      1.32112673	      0.94650300	     17.57167848	     21.40714990	    -63.68936715	    -31.77623824	     -6.03318315	     10.93347575	     -1.69981229	     -0.58740000	      0.58740000
      0.23000000	     -6.41228555	      1.31932339	      0.94588258	     20.02430388	     19.47593492	    -64.49083710	    -31.76168287	     -4.66233553	     12.33522054	     -1.93327993	     -0.61410000	      0.61410000
      0.24000000	     -6.42696189	      1.31807034	      0.94632162	     22.36177055	     17.27984703	    -64.55781449	    -31.03068066	     -3.42891548	     13.17764189	     -1.92919714	     -0.64080000	      0.64080000
      0.25000000	     -6.60916890	      1.31738819	      0.94775257	     24.61069227	     14.94080003	    -63.85657999	    -29.66818292	     -2.86398715	     13.35217596	     -1.62530582	     -0.66750000	      0.66750000
      0.26000000	     -6.77151168	      1.31710155	      0.95009753	     26.54515854	     12.37495591	    -62.52636103	    -27.87545445	     -1.26877986	     12.89930380	     -1.30105422	     -0.69420000	      0.69420000
      0.27000000	     -7.06100902	      1.31732538	      0.95321394	     28.30196885	      9.77835848	    -60.45168658	    -25.69869749	     -0.39255571	     11.66628558	     -0.73229136	     -0.72090000	      0.72090000
      0.28000000	     -7.46806101	      1.31788324	      0.95682051	     29.89146087	      7.23631845	    -57.75267010	    -23.28062949	      0.34804653	      9.73124530	     -0.00332057	     -0.74760000	      0.74760000
      0.29000000	     -7.94289278	      1.31882838	      0.96084219	     31.22130946	      4.77271056	    -54.41104528	    -20.78368754	      0.93980367	      7.11319159	      0.85222566	     -0.77430000	      0.77430000
      0.30000000	     -8.53703953	      1.32007515	      0.96498242	     32.36533528	      2.51600261	    -50.49308307	    -18.32912839	      1.37265786	      3.92369907	      1.88310692	     -0.80100000	      0.80100000
      0.31000000	     -9.17270708	      1.32161000	      0.96916916	     33.23593191	      0.42601339	    -46.03975908	    -15.99560636	      1.59842805	      0.28302731	      2.98133680	     -0.82770000	      0.82770000
      0.32000000	     -9.82286200	      1.32339660	      0.97323029	     33.81614919	     -1.46861428	    -41.12670743	    -13.89590696	      1.59882266	     -3.63489870	      4.10779512	     -0.85440000	      0.85440000
      0.33000000	    -10.50986207	      1.32543239	      0.97693694	     34.15201037	     -3.11595394	    -35.86559963	    -12.09371333	      1.37692213	     -7.66617782	      5.29728179	     -0.88110000	      0.88110000
      0.34000000	    -11.11741231	      1.32763176	      0.98028330	     34.16824001	     -4.60155469	    -30.41739739	    -10.66509435	      0.92544901	    -11.59630581	      6.38898780	     -0.90780000	      0.90780000
      0.35000000	    -11.62274431	      1.32997555	      0.98313568	     33.88469861	     -5.92017740	    -24.96228384	     -9.67316637	      0.30362330	    -15.30829391	      7.34711860	     -0.93450000	      0.93450000
      0.36000000	    -11.97433036	      1.33234066	      0.98542752	     33.33070724	     -7.05526132	    -19.76515849	     -9.28069435	     -0.38033441	    -18.64429710	      8.11824635	     -0.96120000	      0.96120000
      0.37000000	    -12.26797592	      1.33463772	      0.98699106	     32.68544210	     -7.87666539	    -15.05695570	     -9.50602453	     -1.05218841	    -21.47469568	      8.78855096	     -0.98790000	      0.98790000
      0.38000000	    -12.39638601	      1.33670362	      0.98798590	     31.89434556	     -8.44751104	    -11.03982431	    -10.43488177	     -1.58201235	    -23.74763244	      9.21786625	     -1.01460000	      1.01460000
      0.39000000	    -12.39837145	      1.33840074	      0.98836437	     31.05411860	     -8.66890809	     -7.87059695	    -12.14568004	     -1.92583271	    -25.41560441	      9.42380592	     -1.04130000	      1.04130000
      0.40000000	    -12.34669305	      1.33959318	      0.98807721	     30.28558347	     -8.42882524	     -5.66044093	    -14.66932573	     -2.09517501	    -26.38365259	      9.49437401	     -1.06800000	      1.06800000
      0.41000000	    -12.17391245	      1.34026567	      0.98723210	     29.51345378	     -7.83167264	     -4.40176834	    -17.88427774	     -2.11703832	    -26.88807118	      9.34799972	     -1.09470000	      1.09470000
      0.42000000	    -12.00241281	      1.34038000	      0.98566049	     28.87972243	     -6.74143366	     -4.05471132	    -21.79368825	     -2.31857078	    -26.67139764	      9.12927382	     -1.12140000	      1.12140000
      0.43000000	    -11.70209562	      1.33983472	      0.98348078	     28.29797374	     -5.35165496	     -4.70082372	    -26.21316700	     -2.30032901	    -25.97735152	      8.65637199	     -1.14810000	      1.14810000
      0.44000000	    -11.31081054	      1.33880386	      0.98066419	     27.77780003	     -3.70047387	     -6.18035839	    -30.98925942	     -2.15531404	    -24.84104730	      8.01324745	     -1.17480000	      1.17480000
